<svg xmlns="http://www.w3.org/2000/svg" viewBox="0 0 512 512">
  <defs>
    <linearGradient id="bg" x1="0%" y1="0%" x2="100%" y2="100%">
      <stop offset="0%" style="stop-color:#3B82F6"/>
      <stop offset="100%" style="stop-color:#1D4ED8"/>
    </linearGradient>
  </defs>
  <rect width="512" height="512" rx="96" fill="url(#bg)"/>
  <!-- Clipboard shape -->
  <rect x="136" y="100" width="240" height="312" rx="20" fill="white" opacity="0.95"/>
  <rect x="196" y="76" width="120" height="48" rx="12" fill="white"/>
  <rect x="216" y="88" width="80" height="24" rx="8" fill="#3B82F6"/>
  <!-- Checkmark lines -->
  <circle cx="192" cy="208" r="14" fill="#22C55E"/>
  <path d="M184 208 L189 213 L200 202" stroke="white" stroke-width="3" fill="none" stroke-linecap="round" stroke-linejoin="round"/>
  <rect x="224" y="198" width="120" height="12" rx="4" fill="#CBD5E1"/>
  <rect x="224" y="216" width="80" height="8" rx="3" fill="#E2E8F0"/>
  <!-- Second row -->
  <circle cx="192" cy="268" r="14" fill="#22C55E"/>
  <path d="M184 268 L189 273 L200 262" stroke="white" stroke-width="3" fill="none" stroke-linecap="round" stroke-linejoin="round"/>
  <rect x="224" y="258" width="120" height="12" rx="4" fill="#CBD5E1"/>
  <rect x="224" y="276" width="80" height="8" rx="3" fill="#E2E8F0"/>
  <!-- Third row -->
  <circle cx="192" cy="328" r="14" fill="#F59E0B"/>
  <rect x="186" y="322" width="12" height="12" rx="2" fill="none" stroke="white" stroke-width="2.5"/>
  <rect x="224" y="318" width="120" height="12" rx="4" fill="#CBD5E1"/>
  <rect x="224" y="336" width="80" height="8" rx="3" fill="#E2E8F0"/>
  <!-- Star / score accent -->
  <path d="M340 380 L346 396 L364 396 L350 406 L355 422 L340 412 L325 422 L330 406 L316 396 L334 396 Z" fill="#FBBF24"/>
</svg>
